HIERARCHY
ROOT Hips
{
	OFFSET -3.958830 18.904000 13.208200
	CHANNELS 6 Xposition Yposition Zposition Zrotation Yrotation Xrotation 
	JOINT LHipJoint
	{
		OFFSET 0.000000 0.000000 0.000000
		CHANNELS 3 Zrotation Yrotation Xrotation
		JOINT LeftUpLeg
		{
			OFFSET 1.800000 -1.400000 0.085000
			CHANNELS 3 Zrotation Yrotation Xrotation
			JOINT LeftLeg
			{
				OFFSET 2.215000 -6.000000 0.000000
				CHANNELS 3 Zrotation Yrotation Xrotation
				JOINT LeftFoot
				{
					OFFSET 2.500000 -6.900000 0.000000
					CHANNELS 3 Zrotation Yrotation Xrotation
					JOINT LeftToeBase
					{
						OFFSET 0.200000 -0.500000 1.950000
						CHANNELS 3 Zrotation Yrotation Xrotation
						End Site
						{
							OFFSET 0.000000 0.000000 0.000000
						}
					}
				}
			}
		}
	}
	JOINT RHipJoint
	{
		OFFSET 0.000000 0.000000 0.000000
		CHANNELS 3 Zrotation Yrotation Xrotation
		JOINT RightUpLeg
		{
			OFFSET -1.800000 -1.400000 0.085000
			CHANNELS 3 Zrotation Yrotation Xrotation
			JOINT RightLeg
			{
				OFFSET -2.215000 -6.000000 0.000000
				CHANNELS 3 Zrotation Yrotation Xrotation
				JOINT RightFoot
				{
					OFFSET -2.500000 -6.900000 0.000000
					CHANNELS 3 Zrotation Yrotation Xrotation
					JOINT RightToeBase
					{
						OFFSET -0.200000 -0.500000 1.950000
						CHANNELS 3 Zrotation Yrotation Xrotation
						End Site
						{
							OFFSET 0.000000 0.000000 0.000000
						}
					}
				}
			}
		}
	}
	JOINT LowerBack
	{
		OFFSET 0.000000 0.000000 0.000000
		CHANNELS 3 Zrotation Yrotation Xrotation
		JOINT Spine
		{
			OFFSET -0.087000 1.940000 -0.288900
			CHANNELS 3 Zrotation Yrotation Xrotation
			JOINT Spine1
			{
				OFFSET 0.000000 1.950000 0.060000
				CHANNELS 3 Zrotation Yrotation Xrotation
				JOINT Neck
				{
					OFFSET 0.000000 0.000000 0.000000
					CHANNELS 3 Zrotation Yrotation Xrotation
					JOINT Neck1
					{
						OFFSET 0.000000 1.600000 0.340000
						CHANNELS 3 Zrotation Yrotation Xrotation
						JOINT Head
						{
							OFFSET 0.000000 1.667000 -0.240000
							CHANNELS 3 Zrotation Yrotation Xrotation
							End Site
							{
								OFFSET 0.000000 0.000000 0.000000
							}
						}
					}
				}
				JOINT LeftShoulder
				{
					OFFSET 0.000000 0.000000 0.000000
					CHANNELS 3 Zrotation Yrotation Xrotation
					JOINT LeftArm
					{
						OFFSET 2.700000 1.550000 -0.730000
						CHANNELS 3 Zrotation Yrotation Xrotation
						JOINT LeftForeArm
						{
							OFFSET 5.450000 0.000000 0.000000
							CHANNELS 3 Zrotation Yrotation Xrotation
							JOINT LeftHand
							{
								OFFSET 3.450000 0.000000 0.000000
								CHANNELS 3 Zrotation Yrotation Xrotation
								JOINT LeftHandIndex1
								{
									OFFSET 0.750000 0.000000 0.000000
									CHANNELS 3 Zrotation Yrotation Xrotation
									End Site
									{
										OFFSET 0.000000 0.000000 0.000000
									}
								}
							}
						}
					}
				}
				JOINT RightShoulder
				{
					OFFSET 0.000000 0.000000 0.000000
					CHANNELS 3 Zrotation Yrotation Xrotation
					JOINT RightArm
					{
						OFFSET -2.700000 1.550000 -0.730000
						CHANNELS 3 Zrotation Yrotation Xrotation
						JOINT RightForeArm
						{
							OFFSET -5.450000 0.000000 0.000000
							CHANNELS 3 Zrotation Yrotation Xrotation
							JOINT RightHand
							{
								OFFSET -3.450000 0.000000 0.000000
								CHANNELS 3 Zrotation Yrotation Xrotation
								JOINT RightHandIndex1
								{
									OFFSET -0.750000 0.000000 0.000000
									CHANNELS 3 Zrotation Yrotation Xrotation
									End Site
									{
										OFFSET 0.000000 0.000000 0.000000
									}
								}
							}
						}
					}
				}
			}
		}
	}
}
MOTION
Frames: 12
Frame Time: 0.016667
0.661550 17.111420 -1.765100 1.242064 8.041198 -10.711982 -15.801240 13.605200 4.007020 -1.791015 4.233009 13.937576 -9.201527 5.422947 -4.253957 0.453003 5.629887 2.839098 0.246550 0.193650 0.049590 17.748082 -9.737325 2.845336 -3.847113 0.338464 -17.152829 3.133797 -2.243621 -1.418834 -0.103090 -2.218396 3.636105 0.163920 0.262420 0.205530 -2.081015 -3.891399 -8.350122 -4.999435 0.129765 22.021185 3.558798 -1.747193 8.758698 2.209594 -1.528599 -16.668131 -5.348644 2.538068 39.323918 -1.494320 1.309180 -7.462270 -9.450655 -16.933974 6.682654 -0.612682 -4.559458 -0.592339 14.443485 -5.791557 -1.071148 -4.116957 2.698668 0.273140 0.146170 0.055410 0.205700 5.830310 20.537135 13.048272 4.605083 3.784620 -1.252641 -10.711436 -5.537750 0.080508 2.744048 -1.196231 -0.099300 0.262970 0.039460 -0.027860 
0.662160 17.109940 -1.759900 1.140644 8.080167 -10.365736 -15.793650 13.597695 3.999451 -1.730060 4.145079 13.586558 -9.226463 5.389683 -4.246814 0.448629 5.592595 2.849065 0.243010 0.186330 0.050890 17.750949 -9.746890 2.866074 -3.750553 0.420394 -17.506025 3.201650 -2.225228 -1.422166 -0.099328 -2.190218 3.643840 0.155230 0.255000 0.208500 -2.096741 -3.847971 -8.370063 -4.827779 0.028461 21.756674 3.497546 -1.764913 8.052105 2.253219 -1.445556 -16.522631 -5.267915 2.465056 39.669482 -1.577120 1.314390 -7.313950 -9.811458 -16.762989 6.564214 -0.349973 -4.515362 -0.592734 14.202752 -6.154745 -1.047040 -4.105860 2.700669 0.275890 0.142330 0.059670 0.202970 6.118001 20.245782 12.893158 4.602375 3.750252 -1.270789 -10.891875 -5.216469 0.083290 2.739191 -1.198045 -0.095180 0.253880 0.038750 -0.029390 
0.668280 17.106990 -1.749680 0.961626 8.164405 -9.698937 -15.776979 13.577223 3.987893 -1.674111 4.008675 12.964431 -9.295981 5.327704 -4.291811 0.439911 5.525945 2.870274 0.233280 0.170410 0.048860 17.759123 -9.763515 2.906426 -3.635253 0.560679 -18.170162 3.356790 -2.190210 -1.487344 -0.091652 -2.143355 3.658974 0.138620 0.247750 0.209610 -2.134099 -3.759596 -8.410750 -4.416851 -0.208783 21.193416 3.292974 -1.805900 6.840751 2.317195 -1.327656 -16.279542 -5.188091 2.346296 40.294781 -1.652380 1.269040 -6.988090 -10.487151 -16.499782 6.364707 0.140745 -4.407797 -0.602618 13.802920 -6.756947 -1.003351 -4.087212 2.700529 0.281050 0.136630 0.063340 0.199320 6.690989 19.771597 12.623875 4.400106 3.696187 -1.285686 -10.986968 -4.790648 0.094703 2.734538 -1.193051 -0.091900 0.243490 0.039410 -0.030720 
0.678250 17.106400 -1.736250 0.687124 8.209867 -8.846092 -15.755635 13.566118 3.976411 -1.546183 3.821222 12.132154 -9.405743 5.257055 -4.309536 0.424311 5.437648 2.895387 0.225620 0.152900 0.052840 17.766332 -9.779824 2.964476 -3.458696 0.763952 -19.045184 3.557839 -2.142157 -1.553663 -0.085505 -2.069802 3.682886 0.118390 0.229500 0.206740 -2.177431 -3.676907 -8.477775 -3.788133 -0.536584 20.550672 3.025830 -1.853397 4.993291 2.428551 -1.246227 -15.958088 -5.288931 2.271234 41.416867 -1.731540 1.219520 -6.738350 -11.613322 -16.127504 6.064976 0.959876 -4.159874 -0.602818 13.084645 -7.533148 -0.920833 -4.053502 2.694935 0.297750 0.120420 0.074250 0.193970 7.649397 19.179859 12.243009 3.711139 3.603940 -1.310906 -10.841143 -4.227684 0.111087 2.729956 -1.171439 -0.089390 0.232880 0.037870 -0.036880 
0.691070 17.106900 -1.718980 0.226609 8.185656 -7.818872 -15.726616 13.563031 3.958273 -1.274949 3.553890 11.071304 -9.504969 5.175914 -4.265135 0.399402 5.337942 2.928548 0.221230 0.129810 0.060040 17.777275 -9.791909 3.042525 -3.141549 1.057087 -20.095688 3.802509 -2.085410 -1.622964 -0.081832 -1.978966 3.715398 0.093160 0.213260 0.208410 -2.236537 -3.602160 -8.565189 -2.785522 -1.000013 19.752978 2.615484 -1.914112 2.737915 2.555581 -1.197879 -15.545962 -5.521667 2.239838 42.795936 -1.780070 1.125950 -6.467470 -13.104667 -15.678451 5.692338 2.061672 -3.714152 -0.602915 12.201045 -8.340519 -0.819730 -4.014094 2.690827 0.325550 0.102380 0.088080 0.193750 8.954002 18.493367 11.733619 2.490901 3.560290 -1.345708 -10.306356 -3.722410 0.134306 2.725218 -1.138202 -0.088740 0.223570 0.034890 -0.045270 
0.701320 17.107420 -1.703230 -0.152352 8.113617 -6.886710 -15.702014 13.565421 3.945137 -1.075702 3.326610 10.116184 -9.595328 5.101944 -4.241818 0.377636 5.242925 2.960251 0.222900 0.113800 0.074840 17.786340 -9.794937 3.111815 -2.853644 1.325593 -21.062417 3.958636 -2.028291 -1.679021 -0.079928 -1.889924 3.747989 0.071530 0.192300 0.206830 -2.285351 -3.559060 -8.644259 -1.926197 -1.338515 19.078523 2.290418 -1.920193 0.689393 2.658480 -1.166523 -15.216883 -5.786860 2.188520 44.012446 -1.820610 1.021370 -6.348180 -14.374225 -15.275156 5.357226 3.102833 -3.298353 -0.584775 11.242597 -8.852981 -0.706144 -3.975329 2.685041 0.354430 0.081800 0.103020 0.191770 10.084251 17.893145 11.329793 1.265270 3.266527 -1.365025 -9.665555 -3.030998 0.137477 2.716971 -1.105359 -0.087270 0.214480 0.026800 -0.055740 
0.710780 17.108390 -1.690430 -0.500976 8.007791 -6.274955 -15.681818 13.567556 3.938992 -0.882369 3.171987 9.519333 -9.644319 5.049397 -4.297615 0.369204 5.183145 2.979345 0.218000 0.099310 0.079940 17.796170 -9.791795 3.163374 -2.588479 1.528606 -21.681129 4.061253 -1.984838 -1.742862 -0.076435 -1.828100 3.771096 0.054740 0.178730 0.203440 -2.328025 -3.537705 -8.705929 -1.144577 -1.589456 18.619736 1.969557 -1.894371 -0.663482 2.740049 -1.170941 -15.050763 -6.035065 2.170999 44.872668 -1.805170 0.915990 -6.171900 -15.263724 -15.056525 5.156984 3.785591 -2.919657 -0.597735 10.755837 -9.144649 -0.637061 -3.949793 2.683027 0.370220 0.067490 0.112620 0.189020 10.847882 17.569750 11.108073 0.336205 2.951725 -1.372869 -9.085330 -2.570392 0.141404 2.715918 -1.078555 -0.086340 0.208800 0.023390 -0.060290 
0.718450 17.109350 -1.680850 -0.815550 7.870709 -5.887879 -15.665728 13.574466 3.936459 -0.662009 3.055877 9.133190 -9.698576 5.019777 -4.355545 0.366482 5.151822 2.989647 0.207090 0.082720 0.077210 17.804468 -9.785306 3.201725 -2.345886 1.690559 -22.076302 4.165961 -1.957924 -1.759817 -0.071823 -1.784213 3.786804 0.040590 0.172800 0.199670 -2.362063 -3.537697 -8.754122 -0.462299 -1.769729 18.362080 1.711692 -1.844770 -1.613138 2.806757 -1.219535 -14.998335 -6.309258 2.193308 45.482943 -1.772870 0.816980 -5.945410 -15.866049 -14.931976 5.046557 4.234049 -2.532484 -0.603889 10.433521 -9.418468 -0.587161 -3.931609 2.681182 0.379940 0.057940 0.118430 0.186930 11.339845 17.425783 11.014076 -0.405891 2.612973 -1.369232 -8.528715 -2.239726 0.144674 2.718121 -1.054299 -0.088740 0.207190 0.024590 -0.060990 
0.723550 17.109260 -1.673150 -0.976483 7.742618 -5.642482 -15.656976 13.578732 3.933936 -0.518264 2.996013 8.905531 -9.780435 5.013988 -4.367583 0.377250 5.128443 2.996790 0.199570 0.077260 0.076210 17.808426 -9.779464 3.226011 -2.245294 1.785172 -22.342971 4.270205 -1.935659 -1.778138 -0.070128 -1.754712 3.792193 0.031300 0.165340 0.195840 -2.378867 -3.539497 -8.782571 -0.112053 -1.842495 18.193913 1.622873 -1.802004 -2.199162 2.834233 -1.301862 -14.978142 -6.591564 2.214365 45.853731 -1.713820 0.717590 -5.778730 -16.194808 -14.821257 4.985107 4.330968 -2.278589 -0.631412 10.431115 -9.709479 -0.563214 -3.915013 2.685993 0.378670 0.048590 0.124920 0.183220 11.640750 17.362272 10.968006 -0.985215 2.358351 -1.360818 -8.111325 -2.048561 0.141764 2.729053 -1.039352 -0.083890 0.203370 0.022370 -0.056660 
0.725750 17.109220 -1.664970 -1.094912 7.664321 -5.403408 -15.647815 13.578727 3.930340 -0.401743 2.938521 8.679230 -9.847233 5.005695 -4.363662 0.379227 5.104613 3.005812 0.195400 0.072120 0.077270 17.812976 -9.777520 3.249767 -2.155044 1.866584 -22.584261 4.323555 -1.913045 -1.846304 -0.070723 -1.725612 3.804018 0.023350 0.159300 0.188270 -2.397334 -3.529134 -8.809579 0.124535 -1.913936 17.979209 1.547777 -1.781598 -2.742442 2.818144 -1.323945 -14.965686 -6.776443 2.261274 46.434597 -1.546990 0.640760 -5.704490 -16.451651 -14.767007 4.966058 4.520664 -2.026039 -0.628398 10.211950 -9.827768 -0.527197 -3.898319 2.679575 0.386480 0.038260 0.131330 0.182570 11.956179 17.281024 10.877646 -1.395885 2.277286 -1.380403 -7.830975 -1.964639 0.151871 2.735043 -1.021603 -0.084840 0.206940 0.019650 -0.056600 
0.727470 17.109140 -1.658310 -1.135829 7.629758 -5.167943 -15.644578 13.579057 3.926618 -0.377793 2.898051 8.460157 -9.845389 4.988786 -4.359126 0.372515 5.084324 3.016125 0.187560 0.059640 0.075030 17.812771 -9.775043 3.267255 -2.149409 1.926717 -22.838207 4.394863 -1.903093 -1.882395 -0.066480 -1.705417 3.818288 0.014360 0.161570 0.181740 -2.400908 -3.522718 -8.827520 0.158540 -1.931992 17.761931 1.582817 -1.778305 -3.140978 2.800395 -1.296459 -14.976690 -6.820622 2.285478 46.860156 -1.462450 0.613340 -5.535700 -16.656130 -14.776413 4.988812 4.683637 -1.761958 -0.612358 10.003587 -9.874678 -0.500467 -3.891726 2.668077 0.394780 0.036110 0.130470 0.182070 12.222158 17.231144 10.813057 -1.729147 2.179889 -1.403727 -7.615342 -1.845622 0.158080 2.732264 -1.005245 -0.091540 0.213330 0.021720 -0.059340 
0.729410 17.108950 -1.651880 -1.193452 7.596577 -4.934155 -15.645497 13.579050 3.918708 -0.351828 2.854590 8.233431 -9.822366 4.974358 -4.327592 0.365588 5.067248 3.025792 0.173430 0.042830 0.068390 17.810271 -9.766449 3.285676 -2.132904 1.991056 -23.067661 4.497693 -1.890951 -1.970625 -0.059108 -1.693512 3.828242 0.004690 0.168530 0.176790 -2.394710 -3.523355 -8.840352 0.148407 -1.929398 17.512233 1.694490 -1.784940 -3.402672 2.795235 -1.244683 -14.980333 -6.765334 2.272451 47.071942 -1.538030 0.650460 -5.255590 -16.866077 -14.816562 5.032323 4.829363 -1.506244 -0.591696 9.799437 -9.791100 -0.476477 -3.894644 2.657230 0.396520 0.039940 0.125500 0.179200 12.464210 17.207192 10.748728 -2.026058 2.142619 -1.437760 -7.515362 -1.788555 0.160119 2.731356 -0.992811 -0.099200 0.218710 0.027770 -0.060590 
